# xmcd CD database file
#
# Track frame offsets:
#	187
#	24515
#	47977
#	67975
#	90550
#	114912
#	135327
#	155402
#	174655
#	196552
#	218650
#
# Disc length: 3246 seconds
#
# Revision: 0
# Processed by: cddbd v1.5PL3 Copyright (c) Steve Scherf et al.
# Submitted via: CDex 1.51
#
DISCID=850cac0b
DTITLE=Darie - Darie
DYEAR=1998
DGENRE=Pop
TTITLE0=微熱
TTITLE1=みゅう
TTITLE2=私の幾粒かの涙
TTITLE3=そんな女に私はなりたい
TTITLE4=SECOND CRY
TTITLE5=電線
TTITLE6=サメの憂鬱
TTITLE7=小指の約束
TTITLE8=ひと束の夏
TTITLE9=抱いて抱いて抱いて
TTITLE10=デイジー
EXTD=YEAR: 1998
EXTT0=
EXTT1=
EXTT2=
EXTT3=
EXTT4=
EXTT5=
EXTT6=
EXTT7=
EXTT8=
EXTT9=
EXTT10=
PLAYORDER=
